<mxfile host="app.diagrams.net" agent="Mozilla/5.0 (Windows NT 10.0; Win64; x64) AppleWebKit/537.36 (KHTML, like Gecko) Chrome/124.0.0.0 YaBrowser/24.6.0.0 Safari/537.36" version="24.8.3">
  <diagram name="Страница — 1" id="rMYFsLWV7r7OFdGUvmJx">
    <mxGraphModel dx="1434" dy="767" grid="1" gridSize="10" guides="1" tooltips="1" connect="1" arrows="1" fold="1" page="1" pageScale="1" pageWidth="827" pageHeight="1169" math="0" shadow="0">
      <root>
        <mxCell id="0" />
        <mxCell id="1" parent="0" />
        <mxCell id="znVKHPqZ5MHBt2ElPOe2-1" value="" style="edgeStyle=orthogonalEdgeStyle;rounded=0;orthogonalLoop=1;jettySize=auto;html=1;" edge="1" parent="1" source="znVKHPqZ5MHBt2ElPOe2-2" target="znVKHPqZ5MHBt2ElPOe2-4">
          <mxGeometry relative="1" as="geometry" />
        </mxCell>
        <mxCell id="znVKHPqZ5MHBt2ElPOe2-2" value="НАЧАЛО" style="rounded=1;whiteSpace=wrap;html=1;arcSize=37;" vertex="1" parent="1">
          <mxGeometry x="680" y="210" width="140" height="50" as="geometry" />
        </mxCell>
        <mxCell id="znVKHPqZ5MHBt2ElPOe2-3" value="" style="edgeStyle=orthogonalEdgeStyle;rounded=0;orthogonalLoop=1;jettySize=auto;html=1;" edge="1" parent="1" source="znVKHPqZ5MHBt2ElPOe2-4" target="znVKHPqZ5MHBt2ElPOe2-19">
          <mxGeometry relative="1" as="geometry" />
        </mxCell>
        <mxCell id="znVKHPqZ5MHBt2ElPOe2-4" value="k" style="shape=parallelogram;perimeter=parallelogramPerimeter;whiteSpace=wrap;html=1;fixedSize=1;rounded=1;arcSize=0;" vertex="1" parent="1">
          <mxGeometry x="650" y="290" width="200" height="50" as="geometry" />
        </mxCell>
        <mxCell id="znVKHPqZ5MHBt2ElPOe2-5" style="edgeStyle=orthogonalEdgeStyle;rounded=0;orthogonalLoop=1;jettySize=auto;html=1;entryX=0;entryY=0.5;entryDx=0;entryDy=0;" edge="1" parent="1" source="znVKHPqZ5MHBt2ElPOe2-19" target="znVKHPqZ5MHBt2ElPOe2-22">
          <mxGeometry relative="1" as="geometry">
            <mxPoint x="790" y="480.0000000000001" as="targetPoint" />
            <Array as="points">
              <mxPoint x="750" y="480" />
            </Array>
          </mxGeometry>
        </mxCell>
        <mxCell id="znVKHPqZ5MHBt2ElPOe2-6" value="0" style="edgeLabel;html=1;align=center;verticalAlign=middle;resizable=0;points=[];" vertex="1" connectable="0" parent="znVKHPqZ5MHBt2ElPOe2-5">
          <mxGeometry x="0.1115" y="-2" relative="1" as="geometry">
            <mxPoint x="11" y="-2" as="offset" />
          </mxGeometry>
        </mxCell>
        <mxCell id="znVKHPqZ5MHBt2ElPOe2-7" style="edgeStyle=orthogonalEdgeStyle;rounded=0;orthogonalLoop=1;jettySize=auto;html=1;entryX=0;entryY=0.5;entryDx=0;entryDy=0;" edge="1" parent="1" source="znVKHPqZ5MHBt2ElPOe2-19" target="znVKHPqZ5MHBt2ElPOe2-24">
          <mxGeometry relative="1" as="geometry">
            <mxPoint x="790" y="530" as="targetPoint" />
            <Array as="points">
              <mxPoint x="750" y="530" />
            </Array>
          </mxGeometry>
        </mxCell>
        <mxCell id="znVKHPqZ5MHBt2ElPOe2-8" value="1" style="edgeLabel;html=1;align=center;verticalAlign=middle;resizable=0;points=[];" vertex="1" connectable="0" parent="znVKHPqZ5MHBt2ElPOe2-7">
          <mxGeometry x="0.4987" y="-1" relative="1" as="geometry">
            <mxPoint x="10" y="-1" as="offset" />
          </mxGeometry>
        </mxCell>
        <mxCell id="znVKHPqZ5MHBt2ElPOe2-9" style="edgeStyle=orthogonalEdgeStyle;rounded=0;orthogonalLoop=1;jettySize=auto;html=1;entryX=0;entryY=0.5;entryDx=0;entryDy=0;" edge="1" parent="1" source="znVKHPqZ5MHBt2ElPOe2-19" target="znVKHPqZ5MHBt2ElPOe2-26">
          <mxGeometry relative="1" as="geometry">
            <mxPoint x="790" y="580" as="targetPoint" />
            <Array as="points">
              <mxPoint x="750" y="580" />
            </Array>
          </mxGeometry>
        </mxCell>
        <mxCell id="znVKHPqZ5MHBt2ElPOe2-10" value="2" style="edgeLabel;html=1;align=center;verticalAlign=middle;resizable=0;points=[];" vertex="1" connectable="0" parent="znVKHPqZ5MHBt2ElPOe2-9">
          <mxGeometry x="0.666" relative="1" as="geometry">
            <mxPoint x="8" as="offset" />
          </mxGeometry>
        </mxCell>
        <mxCell id="znVKHPqZ5MHBt2ElPOe2-11" style="edgeStyle=orthogonalEdgeStyle;rounded=0;orthogonalLoop=1;jettySize=auto;html=1;entryX=0;entryY=0.5;entryDx=0;entryDy=0;" edge="1" parent="1" source="znVKHPqZ5MHBt2ElPOe2-19" target="znVKHPqZ5MHBt2ElPOe2-28">
          <mxGeometry relative="1" as="geometry">
            <mxPoint x="790" y="630" as="targetPoint" />
            <Array as="points">
              <mxPoint x="750" y="630" />
            </Array>
          </mxGeometry>
        </mxCell>
        <mxCell id="znVKHPqZ5MHBt2ElPOe2-12" value="3" style="edgeLabel;html=1;align=center;verticalAlign=middle;resizable=0;points=[];" vertex="1" connectable="0" parent="znVKHPqZ5MHBt2ElPOe2-11">
          <mxGeometry x="0.7372" relative="1" as="geometry">
            <mxPoint x="9" as="offset" />
          </mxGeometry>
        </mxCell>
        <mxCell id="znVKHPqZ5MHBt2ElPOe2-13" style="edgeStyle=orthogonalEdgeStyle;rounded=0;orthogonalLoop=1;jettySize=auto;html=1;entryX=0;entryY=0.5;entryDx=0;entryDy=0;" edge="1" parent="1" source="znVKHPqZ5MHBt2ElPOe2-19" target="znVKHPqZ5MHBt2ElPOe2-30">
          <mxGeometry relative="1" as="geometry">
            <mxPoint x="790" y="680" as="targetPoint" />
            <Array as="points">
              <mxPoint x="750" y="680" />
            </Array>
          </mxGeometry>
        </mxCell>
        <mxCell id="znVKHPqZ5MHBt2ElPOe2-14" value="4" style="edgeLabel;html=1;align=center;verticalAlign=middle;resizable=0;points=[];" vertex="1" connectable="0" parent="znVKHPqZ5MHBt2ElPOe2-13">
          <mxGeometry x="0.7841" y="1" relative="1" as="geometry">
            <mxPoint x="9" y="1" as="offset" />
          </mxGeometry>
        </mxCell>
        <mxCell id="znVKHPqZ5MHBt2ElPOe2-15" style="edgeStyle=orthogonalEdgeStyle;rounded=0;orthogonalLoop=1;jettySize=auto;html=1;entryX=0;entryY=0.5;entryDx=0;entryDy=0;" edge="1" parent="1" source="znVKHPqZ5MHBt2ElPOe2-19" target="znVKHPqZ5MHBt2ElPOe2-32">
          <mxGeometry relative="1" as="geometry">
            <mxPoint x="790" y="730" as="targetPoint" />
            <Array as="points">
              <mxPoint x="750" y="730" />
            </Array>
          </mxGeometry>
        </mxCell>
        <mxCell id="znVKHPqZ5MHBt2ElPOe2-16" value="5" style="edgeLabel;html=1;align=center;verticalAlign=middle;resizable=0;points=[];" vertex="1" connectable="0" parent="znVKHPqZ5MHBt2ElPOe2-15">
          <mxGeometry x="0.8209" relative="1" as="geometry">
            <mxPoint x="9" as="offset" />
          </mxGeometry>
        </mxCell>
        <mxCell id="znVKHPqZ5MHBt2ElPOe2-17" style="edgeStyle=orthogonalEdgeStyle;rounded=0;orthogonalLoop=1;jettySize=auto;html=1;entryX=0;entryY=0.5;entryDx=0;entryDy=0;" edge="1" parent="1" source="znVKHPqZ5MHBt2ElPOe2-19" target="znVKHPqZ5MHBt2ElPOe2-34">
          <mxGeometry relative="1" as="geometry">
            <mxPoint x="790" y="780" as="targetPoint" />
            <Array as="points">
              <mxPoint x="750" y="780" />
            </Array>
          </mxGeometry>
        </mxCell>
        <mxCell id="znVKHPqZ5MHBt2ElPOe2-18" value="6" style="edgeLabel;html=1;align=center;verticalAlign=middle;resizable=0;points=[];" vertex="1" connectable="0" parent="znVKHPqZ5MHBt2ElPOe2-17">
          <mxGeometry x="0.8418" y="1" relative="1" as="geometry">
            <mxPoint x="9" y="1" as="offset" />
          </mxGeometry>
        </mxCell>
        <mxCell id="znVKHPqZ5MHBt2ElPOe2-19" value="k % 7 + first_day" style="rhombus;whiteSpace=wrap;html=1;rounded=1;arcSize=0;" vertex="1" parent="1">
          <mxGeometry x="660" y="370" width="180" height="80" as="geometry" />
        </mxCell>
        <mxCell id="znVKHPqZ5MHBt2ElPOe2-20" style="edgeStyle=orthogonalEdgeStyle;rounded=0;orthogonalLoop=1;jettySize=auto;html=1;exitX=1;exitY=0.5;exitDx=0;exitDy=0;entryX=1;entryY=0.5;entryDx=0;entryDy=0;" edge="1" parent="1" source="znVKHPqZ5MHBt2ElPOe2-22" target="znVKHPqZ5MHBt2ElPOe2-37">
          <mxGeometry relative="1" as="geometry">
            <mxPoint x="910" y="840" as="targetPoint" />
            <Array as="points">
              <mxPoint x="910" y="480" />
              <mxPoint x="910" y="835" />
            </Array>
          </mxGeometry>
        </mxCell>
        <mxCell id="znVKHPqZ5MHBt2ElPOe2-21" style="edgeStyle=orthogonalEdgeStyle;rounded=0;orthogonalLoop=1;jettySize=auto;html=1;" edge="1" parent="1" source="znVKHPqZ5MHBt2ElPOe2-22">
          <mxGeometry relative="1" as="geometry">
            <mxPoint x="910" y="480" as="targetPoint" />
            <Array as="points">
              <mxPoint x="890" y="480" />
            </Array>
          </mxGeometry>
        </mxCell>
        <mxCell id="znVKHPqZ5MHBt2ElPOe2-22" value="&lt;font style=&quot;font-size: 9px;&quot;&gt;&quot;Воскресенье&quot;&lt;/font&gt;" style="shape=parallelogram;perimeter=parallelogramPerimeter;whiteSpace=wrap;html=1;fixedSize=1;" vertex="1" parent="1">
          <mxGeometry x="780" y="460" width="110" height="40" as="geometry" />
        </mxCell>
        <mxCell id="znVKHPqZ5MHBt2ElPOe2-23" style="edgeStyle=orthogonalEdgeStyle;rounded=0;orthogonalLoop=1;jettySize=auto;html=1;" edge="1" parent="1" source="znVKHPqZ5MHBt2ElPOe2-24">
          <mxGeometry relative="1" as="geometry">
            <mxPoint x="910" y="530" as="targetPoint" />
          </mxGeometry>
        </mxCell>
        <mxCell id="znVKHPqZ5MHBt2ElPOe2-24" value="&lt;font style=&quot;font-size: 9px;&quot;&gt;&quot;Понедельник&quot;&lt;/font&gt;" style="shape=parallelogram;perimeter=parallelogramPerimeter;whiteSpace=wrap;html=1;fixedSize=1;" vertex="1" parent="1">
          <mxGeometry x="780" y="510" width="110" height="40" as="geometry" />
        </mxCell>
        <mxCell id="znVKHPqZ5MHBt2ElPOe2-25" style="edgeStyle=orthogonalEdgeStyle;rounded=0;orthogonalLoop=1;jettySize=auto;html=1;exitX=1;exitY=0.5;exitDx=0;exitDy=0;" edge="1" parent="1" source="znVKHPqZ5MHBt2ElPOe2-26">
          <mxGeometry relative="1" as="geometry">
            <mxPoint x="910" y="580" as="targetPoint" />
          </mxGeometry>
        </mxCell>
        <mxCell id="znVKHPqZ5MHBt2ElPOe2-26" value="&lt;font style=&quot;font-size: 9px;&quot;&gt;&quot;Вторник&quot;&lt;/font&gt;" style="shape=parallelogram;perimeter=parallelogramPerimeter;whiteSpace=wrap;html=1;fixedSize=1;" vertex="1" parent="1">
          <mxGeometry x="780" y="560" width="110" height="40" as="geometry" />
        </mxCell>
        <mxCell id="znVKHPqZ5MHBt2ElPOe2-27" style="edgeStyle=orthogonalEdgeStyle;rounded=0;orthogonalLoop=1;jettySize=auto;html=1;" edge="1" parent="1" source="znVKHPqZ5MHBt2ElPOe2-28">
          <mxGeometry relative="1" as="geometry">
            <mxPoint x="910" y="630" as="targetPoint" />
          </mxGeometry>
        </mxCell>
        <mxCell id="znVKHPqZ5MHBt2ElPOe2-28" value="&lt;font style=&quot;font-size: 9px;&quot;&gt;&quot;Среда&quot;&lt;/font&gt;" style="shape=parallelogram;perimeter=parallelogramPerimeter;whiteSpace=wrap;html=1;fixedSize=1;" vertex="1" parent="1">
          <mxGeometry x="780" y="610" width="110" height="40" as="geometry" />
        </mxCell>
        <mxCell id="znVKHPqZ5MHBt2ElPOe2-29" style="edgeStyle=orthogonalEdgeStyle;rounded=0;orthogonalLoop=1;jettySize=auto;html=1;" edge="1" parent="1" source="znVKHPqZ5MHBt2ElPOe2-30">
          <mxGeometry relative="1" as="geometry">
            <mxPoint x="910" y="680" as="targetPoint" />
          </mxGeometry>
        </mxCell>
        <mxCell id="znVKHPqZ5MHBt2ElPOe2-30" value="&lt;font style=&quot;font-size: 9px;&quot;&gt;&quot;Четверг&quot;&lt;/font&gt;" style="shape=parallelogram;perimeter=parallelogramPerimeter;whiteSpace=wrap;html=1;fixedSize=1;" vertex="1" parent="1">
          <mxGeometry x="780" y="660" width="110" height="40" as="geometry" />
        </mxCell>
        <mxCell id="znVKHPqZ5MHBt2ElPOe2-31" style="edgeStyle=orthogonalEdgeStyle;rounded=0;orthogonalLoop=1;jettySize=auto;html=1;" edge="1" parent="1" source="znVKHPqZ5MHBt2ElPOe2-32">
          <mxGeometry relative="1" as="geometry">
            <mxPoint x="910" y="730" as="targetPoint" />
            <Array as="points">
              <mxPoint x="890" y="730" />
            </Array>
          </mxGeometry>
        </mxCell>
        <mxCell id="znVKHPqZ5MHBt2ElPOe2-32" value="&lt;font style=&quot;font-size: 9px;&quot;&gt;&quot;Пятница&quot;&lt;/font&gt;" style="shape=parallelogram;perimeter=parallelogramPerimeter;whiteSpace=wrap;html=1;fixedSize=1;" vertex="1" parent="1">
          <mxGeometry x="780" y="710" width="120" height="40" as="geometry" />
        </mxCell>
        <mxCell id="znVKHPqZ5MHBt2ElPOe2-33" style="edgeStyle=orthogonalEdgeStyle;rounded=0;orthogonalLoop=1;jettySize=auto;html=1;" edge="1" parent="1" source="znVKHPqZ5MHBt2ElPOe2-34">
          <mxGeometry relative="1" as="geometry">
            <mxPoint x="910" y="780" as="targetPoint" />
            <Array as="points">
              <mxPoint x="890" y="780" />
            </Array>
          </mxGeometry>
        </mxCell>
        <mxCell id="znVKHPqZ5MHBt2ElPOe2-34" value="&lt;font style=&quot;font-size: 9px;&quot;&gt;&quot;Суббота&quot;&lt;/font&gt;" style="shape=parallelogram;perimeter=parallelogramPerimeter;whiteSpace=wrap;html=1;fixedSize=1;" vertex="1" parent="1">
          <mxGeometry x="780" y="760" width="110" height="40" as="geometry" />
        </mxCell>
        <mxCell id="znVKHPqZ5MHBt2ElPOe2-35" value="" style="edgeStyle=orthogonalEdgeStyle;rounded=0;orthogonalLoop=1;jettySize=auto;html=1;entryX=0;entryY=0.5;entryDx=0;entryDy=0;" edge="1" parent="1" target="znVKHPqZ5MHBt2ElPOe2-37">
          <mxGeometry relative="1" as="geometry">
            <mxPoint x="790" y="830" as="targetPoint" />
            <mxPoint x="660" y="410" as="sourcePoint" />
            <Array as="points">
              <mxPoint x="630" y="410" />
              <mxPoint x="630" y="835" />
            </Array>
          </mxGeometry>
        </mxCell>
        <mxCell id="znVKHPqZ5MHBt2ElPOe2-36" value="default" style="edgeLabel;html=1;align=center;verticalAlign=middle;resizable=0;points=[];" vertex="1" connectable="0" parent="znVKHPqZ5MHBt2ElPOe2-35">
          <mxGeometry x="-0.2122" y="1" relative="1" as="geometry">
            <mxPoint as="offset" />
          </mxGeometry>
        </mxCell>
        <mxCell id="znVKHPqZ5MHBt2ElPOe2-37" value="КОНЕЦ" style="rounded=1;whiteSpace=wrap;html=1;arcSize=37;" vertex="1" parent="1">
          <mxGeometry x="690" y="810" width="130" height="50" as="geometry" />
        </mxCell>
        <mxCell id="znVKHPqZ5MHBt2ElPOe2-38" style="edgeStyle=orthogonalEdgeStyle;rounded=0;orthogonalLoop=1;jettySize=auto;html=1;" edge="1" parent="1" source="znVKHPqZ5MHBt2ElPOe2-39">
          <mxGeometry relative="1" as="geometry">
            <mxPoint x="1120" y="260" as="targetPoint" />
          </mxGeometry>
        </mxCell>
        <mxCell id="znVKHPqZ5MHBt2ElPOe2-39" value="&lt;font style=&quot;font-size: 14px;&quot;&gt;Начало&lt;/font&gt;" style="strokeWidth=2;html=1;shape=mxgraph.flowchart.terminator;whiteSpace=wrap;fontFamily=Times New Roman;" vertex="1" parent="1">
          <mxGeometry x="1030" y="150" width="180" height="60" as="geometry" />
        </mxCell>
        <mxCell id="znVKHPqZ5MHBt2ElPOe2-40" style="edgeStyle=orthogonalEdgeStyle;rounded=0;orthogonalLoop=1;jettySize=auto;html=1;" edge="1" parent="1" source="znVKHPqZ5MHBt2ElPOe2-41">
          <mxGeometry relative="1" as="geometry">
            <mxPoint x="1115" y="370" as="targetPoint" />
          </mxGeometry>
        </mxCell>
        <mxCell id="znVKHPqZ5MHBt2ElPOe2-41" value="Вводим символы &#39;a&#39; or &#39;b&#39;" style="shape=parallelogram;html=1;strokeWidth=2;perimeter=parallelogramPerimeter;whiteSpace=wrap;rounded=1;arcSize=12;size=0.23;fontFamily=Times New Roman;" vertex="1" parent="1">
          <mxGeometry x="1000" y="260" width="230" height="70" as="geometry" />
        </mxCell>
        <mxCell id="znVKHPqZ5MHBt2ElPOe2-42" style="edgeStyle=orthogonalEdgeStyle;rounded=0;orthogonalLoop=1;jettySize=auto;html=1;" edge="1" parent="1" source="znVKHPqZ5MHBt2ElPOe2-43" target="znVKHPqZ5MHBt2ElPOe2-45">
          <mxGeometry relative="1" as="geometry" />
        </mxCell>
        <mxCell id="znVKHPqZ5MHBt2ElPOe2-43" value="Считывание: c = ввод символа" style="rounded=1;whiteSpace=wrap;html=1;absoluteArcSize=1;arcSize=14;strokeWidth=2;" vertex="1" parent="1">
          <mxGeometry x="1040" y="370" width="150" height="90" as="geometry" />
        </mxCell>
        <mxCell id="znVKHPqZ5MHBt2ElPOe2-44" style="edgeStyle=orthogonalEdgeStyle;rounded=0;orthogonalLoop=1;jettySize=auto;html=1;" edge="1" parent="1" source="znVKHPqZ5MHBt2ElPOe2-45">
          <mxGeometry relative="1" as="geometry">
            <mxPoint x="1115" y="620" as="targetPoint" />
          </mxGeometry>
        </mxCell>
        <mxCell id="znVKHPqZ5MHBt2ElPOe2-45" value="Проверка значения c:" style="rounded=1;whiteSpace=wrap;html=1;absoluteArcSize=1;arcSize=14;strokeWidth=2;" vertex="1" parent="1">
          <mxGeometry x="1040" y="500" width="150" height="80" as="geometry" />
        </mxCell>
        <mxCell id="znVKHPqZ5MHBt2ElPOe2-46" style="edgeStyle=orthogonalEdgeStyle;rounded=0;orthogonalLoop=1;jettySize=auto;html=1;entryX=0.575;entryY=0;entryDx=0;entryDy=0;entryPerimeter=0;" edge="1" parent="1" source="znVKHPqZ5MHBt2ElPOe2-48" target="znVKHPqZ5MHBt2ElPOe2-51">
          <mxGeometry relative="1" as="geometry">
            <mxPoint x="1290" y="675" as="targetPoint" />
          </mxGeometry>
        </mxCell>
        <mxCell id="znVKHPqZ5MHBt2ElPOe2-47" style="edgeStyle=orthogonalEdgeStyle;rounded=0;orthogonalLoop=1;jettySize=auto;html=1;entryX=0.5;entryY=0;entryDx=0;entryDy=0;" edge="1" parent="1" source="znVKHPqZ5MHBt2ElPOe2-48" target="znVKHPqZ5MHBt2ElPOe2-49">
          <mxGeometry relative="1" as="geometry">
            <mxPoint x="940" y="675" as="targetPoint" />
            <Array as="points">
              <mxPoint x="970" y="675" />
            </Array>
          </mxGeometry>
        </mxCell>
        <mxCell id="znVKHPqZ5MHBt2ElPOe2-48" value="Если c == &#39;a&#39;:" style="strokeWidth=2;html=1;shape=mxgraph.flowchart.decision;whiteSpace=wrap;" vertex="1" parent="1">
          <mxGeometry x="1040" y="625" width="150" height="100" as="geometry" />
        </mxCell>
        <mxCell id="znVKHPqZ5MHBt2ElPOe2-49" value="Вывод: &quot;Введено &#39;a&#39;.&quot;" style="rounded=0;whiteSpace=wrap;html=1;" vertex="1" parent="1">
          <mxGeometry x="900" y="830" width="140" height="60" as="geometry" />
        </mxCell>
        <mxCell id="znVKHPqZ5MHBt2ElPOe2-50" style="edgeStyle=orthogonalEdgeStyle;rounded=0;orthogonalLoop=1;jettySize=auto;html=1;exitX=0.569;exitY=1.017;exitDx=0;exitDy=0;exitPerimeter=0;" edge="1" parent="1" source="znVKHPqZ5MHBt2ElPOe2-51">
          <mxGeometry relative="1" as="geometry">
            <mxPoint x="1294" y="830" as="targetPoint" />
          </mxGeometry>
        </mxCell>
        <mxCell id="znVKHPqZ5MHBt2ElPOe2-51" value="Если c == &#39;b&#39;:" style="rounded=0;whiteSpace=wrap;html=1;" vertex="1" parent="1">
          <mxGeometry x="1220" y="710" width="130" height="60" as="geometry" />
        </mxCell>
        <mxCell id="znVKHPqZ5MHBt2ElPOe2-52" value="Вывод: &quot;Введено &#39;b&#39;.&quot;" style="rounded=0;whiteSpace=wrap;html=1;" vertex="1" parent="1">
          <mxGeometry x="1230" y="830" width="130" height="60" as="geometry" />
        </mxCell>
        <mxCell id="znVKHPqZ5MHBt2ElPOe2-53" value="" style="strokeWidth=2;html=1;shape=mxgraph.flowchart.annotation_2;align=left;labelPosition=right;pointerEvents=1;rotation=-90;" vertex="1" parent="1">
          <mxGeometry x="1110" y="750" width="50" height="335" as="geometry" />
        </mxCell>
        <mxCell id="znVKHPqZ5MHBt2ElPOe2-54" style="edgeStyle=orthogonalEdgeStyle;rounded=0;orthogonalLoop=1;jettySize=auto;html=1;" edge="1" parent="1" source="znVKHPqZ5MHBt2ElPOe2-55">
          <mxGeometry relative="1" as="geometry">
            <mxPoint x="1130" y="1080" as="targetPoint" />
          </mxGeometry>
        </mxCell>
        <mxCell id="znVKHPqZ5MHBt2ElPOe2-55" value="Вывод: &quot;Неизвестный символ&quot;" style="rounded=0;whiteSpace=wrap;html=1;" vertex="1" parent="1">
          <mxGeometry x="1040" y="940" width="180" height="60" as="geometry" />
        </mxCell>
        <mxCell id="znVKHPqZ5MHBt2ElPOe2-56" value="&lt;font style=&quot;font-size: 14px;&quot;&gt;Конец&lt;/font&gt;" style="strokeWidth=2;html=1;shape=mxgraph.flowchart.terminator;whiteSpace=wrap;fontFamily=Times New Roman;" vertex="1" parent="1">
          <mxGeometry x="1040" y="1080" width="180" height="60" as="geometry" />
        </mxCell>
        <mxCell id="znVKHPqZ5MHBt2ElPOe2-57" value="Нет" style="text;strokeColor=none;fillColor=none;html=1;fontSize=24;fontStyle=1;verticalAlign=middle;align=center;" vertex="1" parent="1">
          <mxGeometry x="1270" y="625" width="50" height="40" as="geometry" />
        </mxCell>
      </root>
    </mxGraphModel>
  </diagram>
</mxfile>
